<svg width="24" height="25" viewBox="0 0 24 25" fill="none" xmlns="http://www.w3.org/2000/svg">
<path d="M4 19.5396V10.5396C4 10.2229 4.071 9.92288 4.213 9.63955C4.355 9.35622 4.55067 9.12288 4.8 8.93955L10.8 4.43955C11.15 4.17288 11.55 4.03955 12 4.03955C12.45 4.03955 12.85 4.17288 13.2 4.43955L19.2 8.93955C19.45 9.12288 19.646 9.35622 19.788 9.63955C19.93 9.92288 20.0007 10.2229 20 10.5396V19.5396C20 20.0896 19.804 20.5606 19.412 20.9526C19.02 21.3446 18.5493 21.5402 18 21.5396H15C14.7167 21.5396 14.4793 21.4436 14.288 21.2516C14.0967 21.0596 14.0007 20.8222 14 20.5396V15.5396C14 15.2562 13.904 15.0189 13.712 14.8276C13.52 14.6362 13.2827 14.5402 13 14.5396H11C10.7167 14.5396 10.4793 14.6356 10.288 14.8276C10.0967 15.0196 10.0007 15.2569 10 15.5396V20.5396C10 20.8229 9.904 21.0606 9.712 21.2526C9.52 21.4446 9.28267 21.5402 9 21.5396H6C5.45 21.5396 4.97933 21.3439 4.588 20.9526C4.19667 20.5612 4.00067 20.0902 4 19.5396Z" fill="black"/>
</svg>
