<svg width="25" height="25" viewBox="0 0 25 25" fill="none" xmlns="http://www.w3.org/2000/svg">
<path d="M20.0352 5.4496C19.1182 4.52371 18.0262 3.78957 16.8227 3.28997C15.6192 2.79036 14.3282 2.53529 13.0252 2.5396C7.56516 2.5396 3.11516 6.9896 3.11516 12.4496C3.11516 14.1996 3.57516 15.8996 4.43516 17.3996L3.03516 22.5396L8.28516 21.1596C9.73516 21.9496 11.3652 22.3696 13.0252 22.3696C18.4852 22.3696 22.9352 17.9196 22.9352 12.4596C22.9352 9.80961 21.9052 7.3196 20.0352 5.4496ZM13.0252 20.6896C11.5452 20.6896 10.0952 20.2896 8.82516 19.5396L8.52516 19.3596L5.40516 20.1796L6.23516 17.1396L6.03516 16.8296C5.2127 15.5167 4.77608 13.9989 4.77516 12.4496C4.77516 7.90961 8.47516 4.2096 13.0152 4.2096C15.2152 4.2096 17.2852 5.0696 18.8352 6.6296C19.6028 7.39347 20.2111 8.30215 20.6248 9.30293C21.0385 10.3037 21.2494 11.3767 21.2452 12.4596C21.2652 16.9996 17.5652 20.6896 13.0252 20.6896ZM17.5452 14.5296C17.2952 14.4096 16.0752 13.8096 15.8552 13.7196C15.6252 13.6396 15.4652 13.5996 15.2952 13.8396C15.1252 14.0896 14.6552 14.6496 14.5152 14.8096C14.3752 14.9796 14.2252 14.9996 13.9752 14.8696C13.7252 14.7496 12.9252 14.4796 11.9852 13.6396C11.2452 12.9796 10.7552 12.1696 10.6052 11.9196C10.4652 11.6696 10.5852 11.5396 10.7152 11.4096C10.8252 11.2996 10.9652 11.1196 11.0852 10.9796C11.2052 10.8396 11.2552 10.7296 11.3352 10.5696C11.4152 10.3996 11.3752 10.2596 11.3152 10.1396C11.2552 10.0196 10.7552 8.7996 10.5552 8.2996C10.3552 7.8196 10.1452 7.8796 9.99516 7.8696H9.51516C9.34516 7.8696 9.08516 7.9296 8.85516 8.1796C8.63516 8.4296 7.99516 9.0296 7.99516 10.2496C7.99516 11.4696 8.88516 12.6496 9.00516 12.8096C9.12516 12.9796 10.7552 15.4796 13.2352 16.5496C13.8252 16.8096 14.2852 16.9596 14.6452 17.0696C15.2352 17.2596 15.7752 17.2296 16.2052 17.1696C16.6852 17.0996 17.6752 16.5696 17.8752 15.9896C18.0852 15.4096 18.0852 14.9196 18.0152 14.8096C17.9452 14.6996 17.7952 14.6496 17.5452 14.5296Z" fill="black"/>
</svg>
